<?xml version="1.0" encoding="utf-8"?>
<!-- Generator: Adobe Illustrator 26.0.3, SVG Export Plug-In . SVG Version: 6.00 Build 0)  -->
<svg version="1.1" id="Laag_1" xmlns="http://www.w3.org/2000/svg" xmlns:xlink="http://www.w3.org/1999/xlink" x="0px" y="0px"
	 viewBox="0 0 1026 609.57" style="enable-background:new 0 0 1026 609.57;" xml:space="preserve">
<style type="text/css">
	.st0{clip-path:url(#SVGID_00000000180791205029974610000014274084013474894007_);fill:#1D1D1B;}
</style>
<g>
	<defs>
		<rect id="SVGID_1_" width="1026" height="609.57"/>
	</defs>
	<clipPath id="SVGID_00000080196652602961342340000016974750778089741720_">
		<use xlink:href="#SVGID_1_"  style="overflow:visible;"/>
	</clipPath>
	<path style="clip-path:url(#SVGID_00000080196652602961342340000016974750778089741720_);fill:#1D1D1B;" d="M960.8,459.99
		c8.16-2.3,15.16-5.61,21.01-9.93c5.85-4.32,10.37-9.54,13.53-15.69c3.17-6.14,4.75-13.05,4.75-20.73c0-7.29-1.39-13.19-4.17-17.7
		c-2.78-4.51-6.28-8.06-10.5-10.65c-4.22-2.59-8.88-4.51-13.96-5.76c-5.09-1.24-10.03-2.25-14.83-3.02l-21.01-3.46
		c-3.07-0.57-6-1.2-8.78-1.88c-2.79-0.67-5.24-1.72-7.34-3.16c-2.11-1.44-3.79-3.31-5.04-5.62c-1.25-2.3-1.87-5.28-1.87-8.92
		c0-8.06,3.3-14.48,9.93-19.29c6.62-4.79,16.36-7.19,29.22-7.19c6.33,0,11.84,0.53,16.55,1.58c4.7,1.06,8.73,2.45,12.09,4.17
		c3.35,1.72,6.14,3.65,8.35,5.75c2.2,2.11,3.97,4.13,5.32,6.05l15.83-13.81c-5.57-7.1-12.95-12.67-22.17-16.7
		c-9.21-4.03-20.34-6.05-33.39-6.05c-8.83,0-17.08,1.01-24.75,3.02c-7.68,2.01-14.4,4.99-20.15,8.92
		c-5.76,3.93-10.32,8.83-13.67,14.68c-3.36,5.85-5.04,12.71-5.04,20.57c0,6.91,1.3,12.63,3.89,17.13c2.59,4.51,5.95,8.2,10.08,11.08
		c4.12,2.88,8.82,5.04,14.1,6.48c5.28,1.44,10.6,2.55,15.98,3.31l21.59,3.16c6.14,0.97,11.27,2.74,15.4,5.33
		c4.12,2.59,6.19,7.33,6.19,14.25c0,9.02-3.74,16.03-11.23,21.01c-7.48,5-17.84,7.49-31.08,7.49c-11.32,0-20.82-1.88-28.5-5.62
		c-7.68-3.73-14.39-9.25-20.15-16.55l-16.7,13.25c6.53,9.02,15.12,15.93,25.77,20.73c10.65,4.79,23.17,7.19,37.57,7.19
		C943.58,463.44,952.64,462.3,960.8,459.99 M798.17,328.43c3.73,1.15,6.76,2.72,9.07,4.72c2.3,2.01,3.97,4.35,5.04,7.02
		c1.05,2.67,1.58,5.54,1.58,8.59c0,3.63-0.96,7.26-2.87,10.89c-1.92,3.62-5.81,6.97-11.66,10.02c-5.86,3.06-14.3,5.68-25.33,7.88
		c-11.04,2.19-25.58,3.58-43.61,4.15l0.29-2.87c2.11-16.8,7.87-29.68,17.28-38.66c9.39-8.97,21.59-13.46,36.55-13.46
		C789.86,326.72,794.43,327.29,798.17,328.43 M803.06,452.59c10.65-7.23,20.19-17.8,28.64-31.69l-15.83-9.84
		c-4.22,5.95-8.2,10.99-11.95,15.11c-3.74,4.13-7.58,7.49-11.52,10.08c-3.93,2.59-8.06,4.51-12.38,5.75
		c-4.32,1.25-9.16,1.88-14.53,1.88c-7.87,0-14.21-1.1-19-3.31c-4.8-2.2-8.54-5.18-11.22-8.92c-2.69-3.74-4.52-8.01-5.47-12.81
		s-1.44-9.79-1.44-14.97v-2.45c0-1.24,0.1-2.63,0.29-4.17c23.61-0.57,42.55-2.48,56.85-5.73c14.29-3.26,25.23-7.27,32.81-12.05
		c7.58-4.79,12.57-9.95,14.97-15.5c2.39-5.55,3.6-10.9,3.6-16.07c0-6.5-1.25-12.23-3.74-17.21c-2.5-4.98-6-9.14-10.51-12.48
		c-4.51-3.35-9.83-5.88-15.97-7.61c-6.15-1.72-12.86-2.59-20.15-2.59c-11.9,0-22.89,2.26-32.96,6.77
		c-10.08,4.51-18.71,10.85-25.91,18.99c-7.2,8.16-12.81,17.85-16.84,29.07c-4.03,11.23-6.05,23.56-6.05,36.99
		c0,21.49,5.08,37.47,15.26,47.93c10.17,10.45,24.65,15.68,43.46,15.68C779.22,463.44,792.41,459.83,803.06,452.59 M613.51,459.99
		h34.25l33.68-200.91h-21.88L630.5,432.36h-2.02l-38.28-173.29h-34.25l-33.68,200.91h21.88l29.07-173.29h2.02L613.51,459.99z
		 M377.76,459.99l13.81-82.22c0.77-4.22,1.92-8.21,3.46-11.96c1.53-3.75,3.17-7.12,4.89-10.1c1.73-2.98,3.41-5.48,5.04-7.5
		c1.63-2.01,2.83-3.5,3.6-4.47c4.22-5,8.87-8.94,13.97-11.83c5.08-2.88,10.89-4.33,17.41-4.33c8.44,0,14.68,2.55,18.71,7.65
		c4.03,5.09,6.05,12.07,6.05,20.92c0,1.53-0.1,3.7-0.29,6.49c-0.2,2.79-0.58,5.91-1.16,9.37l-14.68,87.99h22.45L486,370.18
		c0.57-3.26,1.01-6.57,1.29-9.93c0.29-3.36,0.43-6.48,0.43-9.36c0-13.62-3.6-24.17-10.79-31.66c-7.2-7.49-17.04-11.23-29.5-11.23
		c-12.09,0-21.98,3.46-29.66,10.37c-7.68,6.9-14.29,16.31-19.86,28.2h-1.16l5.76-35.12h-22.46l-24.75,148.53H377.76z M212.39,434.47
		c-5.28-6.27-7.92-15-7.92-26.18c0-1.92,0.1-3.9,0.29-5.93c0.19-2.02,0.48-4.39,0.86-7.09l3.46-20.83
		c2.31-13.88,7.53-25.16,15.69-33.85c8.15-8.68,19.43-13.02,33.82-13.02c11.13,0,20.01,2.85,26.62,8.54
		c6.62,5.68,9.07,13.73,7.34,24.15l-5.47,32.98c-1.16,6.94-3.22,13.31-6.19,19.1c-2.98,5.79-6.38,10.8-10.22,15.04
		c-5.19,5.78-10.75,9.98-16.7,12.58c-5.95,2.61-12,3.91-18.14,3.91C225.49,443.88,217.67,440.74,212.39,434.47 M298.31,459.99
		l24.76-148.53h-22.45l-4.32,25.67h-0.86c-3.27-9.7-8.6-16.98-15.98-21.84c-7.39-4.85-16.55-7.29-27.49-7.29
		c-13.05,0-24.09,3.22-33.1,9.64c-9.02,6.43-16.26,14.54-21.73,24.33c-5.47,9.79-9.4,20.4-11.8,31.81c-2.4,11.42-3.6,22.12-3.6,32.1
		c0,19.19,3.98,33.58,11.95,43.18c7.96,9.6,19.43,14.39,34.4,14.39c13.05,0,23.65-3.48,31.81-10.45
		c8.16-6.98,15.12-16.28,20.87-27.93h0.86l-5.75,34.92H298.31z M15.07,311.46l-3.17,19.58h31.67L28.6,430.99
		c-0.38,1.72-0.67,3.54-0.86,5.46c-0.19,1.92-0.29,3.64-0.29,5.17c0,6.51,1.82,11.58,5.47,15.22c3.65,3.64,9.21,5.46,16.7,5.46
		c13.43,0,26.14-2.92,38.14-8.78c12-5.85,22.5-13.81,31.52-23.89c9.02-10.07,16.16-21.83,21.44-35.26
		c5.28-13.43,7.92-27.73,7.92-42.89c0-7.87-0.82-15.35-2.45-22.46c-1.63-7.09-3.98-13.53-7.05-19.28l-21.6,6.33
		c2.69,5.38,4.7,11.18,6.05,17.41c1.34,6.24,2.01,12.63,2.01,19.15c0,10.75-1.53,21.3-4.6,31.66c-3.07,10.37-7.68,19.77-13.81,28.21
		c-6.15,8.45-13.77,15.55-22.88,21.3c-9.12,5.76-19.62,9.41-31.52,10.94l-3.74-2.59l19.58-130.68H15.07z"/>
	<path style="clip-path:url(#SVGID_00000080196652602961342340000016974750778089741720_);fill:#1D1D1B;" d="M930.15,200.92
		l12.95-77.43c0.76-4.22,1.87-8.16,3.3-11.8c1.44-3.65,3.02-6.91,4.76-9.79c1.72-2.87,3.4-5.32,5.04-7.33
		c1.63-2.02,2.92-3.6,3.89-4.76c4.41-5.18,9.5-8.96,15.25-11.36c5.76-2.4,12.95-3.6,21.59-3.6h25.34l3.73-22.45h-22.45
		c-7.1,0-13.43,0.96-18.99,2.87c-5.57,1.92-10.51,4.6-14.83,8.06c-4.32,3.46-8.11,7.63-11.37,12.52
		c-3.26,4.89-6.15,10.32-8.64,16.26h-1.44l6.62-39.72h-64.19l-3.17,19.57h41.74l-21.59,128.96H930.15z M798.16,69.36
		c3.74,1.15,6.77,2.72,9.07,4.73c2.3,2,3.97,4.34,5.04,7.02c1.05,2.67,1.58,5.54,1.58,8.59c0,3.63-0.96,7.25-2.88,10.89
		c-1.92,3.62-5.8,6.97-11.65,10.02c-5.86,3.06-14.3,5.68-25.33,7.88c-11.04,2.19-25.58,3.58-43.61,4.15l0.29-2.87
		c2.11-16.79,7.87-29.68,17.27-38.65s21.6-13.46,36.56-13.46C789.86,67.65,794.42,68.22,798.16,69.36 M803.06,193.53
		c10.65-7.24,20.19-17.8,28.63-31.7l-15.83-9.84c-4.23,5.95-8.2,10.99-11.95,15.12c-3.74,4.13-7.58,7.49-11.52,10.07
		c-3.93,2.59-8.06,4.52-12.38,5.76c-4.32,1.24-9.17,1.87-14.53,1.87c-7.88,0-14.21-1.1-19-3.31c-4.8-2.2-8.54-5.18-11.23-8.92
		c-2.69-3.74-4.51-8-5.47-12.81c-0.97-4.8-1.44-9.78-1.44-14.96v-2.45c0-1.24,0.1-2.63,0.29-4.17c23.6-0.57,42.55-2.48,56.85-5.74
		c14.29-3.25,25.24-7.26,32.82-12.05c7.58-4.78,12.57-9.94,14.97-15.49c2.39-5.55,3.6-10.91,3.6-16.07c0-6.5-1.25-12.24-3.74-17.21
		c-2.5-4.97-6-9.13-10.51-12.48c-4.51-3.34-9.83-5.88-15.98-7.61c-6.14-1.72-12.86-2.58-20.14-2.58c-11.91,0-22.89,2.26-32.96,6.76
		c-10.08,4.52-18.71,10.85-25.91,19c-7.2,8.16-12.81,17.84-16.84,29.07c-4.03,11.23-6.05,23.56-6.05,36.99
		c0,21.49,5.08,37.47,15.26,47.92c10.17,10.46,24.65,15.69,43.46,15.69C779.21,204.38,792.41,200.76,803.06,193.53 M588.76,203.09
		c3.06-0.87,6.57-2.25,10.5-4.17c3.93-1.92,8.35-4.45,13.24-7.61c4.9-3.16,10.7-7.13,17.42-11.92l32.52-22.98l-11.22-14.68
		l-64.77,43.08l-5.75-3.43l18.42-109.41h61.32l3.17-19.57h-61.32L611.21,0h-21.3l-6.62,38.86c-0.96,5-2.63,8.49-5.04,10.51
		c-2.4,2.01-6.09,3.02-11.08,3.02h-30.23l-3.16,19.57h42.89l-17.27,99.96c-0.39,1.53-0.63,3.45-0.72,5.75
		c-0.1,2.3-0.14,4.11-0.14,5.45c0,6.9,1.87,12.16,5.61,15.8c3.74,3.64,8.97,5.46,15.69,5.46
		C582.71,204.38,585.69,203.95,588.76,203.09 M447.42,200.92h22.46l24.76-148.53h-22.46l-13.81,82.22
		c-0.77,4.23-1.92,8.22-3.46,11.97c-1.54,3.75-3.17,7.11-4.89,10.1c-1.72,2.98-3.41,5.48-5.04,7.5c-1.64,2.02-2.83,3.5-3.6,4.47
		c-4.22,5-8.88,8.95-13.96,11.83c-5.09,2.89-10.89,4.33-17.42,4.33c-8.44,0-14.68-2.55-18.71-7.64c-4.03-5.1-6.05-12.07-6.05-20.93
		c0-1.53,0.1-3.7,0.3-6.49c0.18-2.79,0.57-5.91,1.15-9.37l14.68-87.99h-22.45l-14.97,89.81c-1.15,6.72-1.72,13.14-1.72,19.29
		c0,13.62,3.6,24.17,10.8,31.66c7.19,7.49,17.02,11.23,29.5,11.23c12.09,0,21.97-3.46,29.65-10.37c7.67-6.9,14.29-16.3,19.86-28.2
		h1.16L447.42,200.92z M216.57,176.02c-6.53-5.85-9.79-15.12-9.79-27.78c0-1.72,0.1-3.73,0.29-6.04c0.19-2.31,0.57-5.18,1.16-8.64
		l2.87-17.27c2.49-14.78,7.92-26.43,16.26-34.98c8.35-8.53,19.53-12.81,33.53-12.81c11.13,0,19.96,2.93,26.48,8.78
		c6.53,5.86,9.79,15.12,9.79,27.78c0,1.73-0.1,3.74-0.29,6.05c-0.19,2.3-0.57,5.18-1.16,8.64l-2.87,17.27
		c-2.5,14.78-7.92,26.43-16.26,34.97c-8.35,8.54-19.53,12.81-33.53,12.81C231.92,184.8,223.09,181.88,216.57,176.02 M272.55,197.9
		c9.5-4.32,17.75-10.5,24.76-18.56c7-8.06,12.52-17.8,16.55-29.22c4.03-11.41,6.04-24.23,6.04-38.43c0-9.21-1.2-17.71-3.6-25.47
		c-2.4-7.77-6.04-14.4-10.93-19.86c-4.89-5.47-10.99-9.74-18.28-12.81c-7.29-3.07-15.74-4.6-25.33-4.6
		c-10.93,0-21.11,2.15-30.51,6.47c-9.4,4.32-17.61,10.51-24.61,18.57c-7.01,8.06-12.52,17.8-16.55,29.22s-6.04,24.23-6.04,38.43
		c0,9.21,1.24,17.7,3.74,25.47c2.49,7.77,6.14,14.39,10.93,19.86c4.8,5.47,10.8,9.74,18,12.81c7.19,3.06,15.59,4.6,25.19,4.6
		C252.83,204.38,263.06,202.22,272.55,197.9 M40.98,200.92L85.6,79.74h2.3l4.32,121.19h34.84L176.27,0h-21.59l-27.34,115.15
		l-14.68,62.17h-2.3L104.3,52.39H77.25L30.32,177.32h-2.3l6.04-64.19L44.72,0H23.71L6.15,200.92H40.98z"/>
	<path style="clip-path:url(#SVGID_00000080196652602961342340000016974750778089741720_);fill:#1D1D1B;" d="M975,590.53l4.31-25.64
		c0.24-1.32,0.6-2.57,1.08-3.73c0.48-1.17,0.99-2.22,1.53-3.15c0.53-0.93,1.06-1.71,1.57-2.34c0.5-0.63,0.88-1.09,1.12-1.4
		c1.32-1.56,2.77-2.79,4.36-3.69c1.59-0.9,3.4-1.35,5.43-1.35c2.63,0,4.57,0.79,5.83,2.39c1.26,1.59,1.88,3.76,1.88,6.52
		c0,0.48-0.03,1.16-0.09,2.03c-0.06,0.87-0.18,1.84-0.36,2.92l-4.58,27.45h7.01l4.67-28.01c0.18-1.02,0.31-2.05,0.41-3.1
		c0.09-1.05,0.13-2.02,0.13-2.92c0-4.25-1.12-7.54-3.37-9.88c-2.24-2.33-5.31-3.5-9.2-3.5c-3.77,0-6.86,1.08-9.25,3.23
		c-2.39,2.15-4.46,5.08-6.19,8.79h-0.36l1.8-10.95h-7.01L968,590.53H975z M923.59,581.05c-1.65-1.96-2.47-4.8-2.47-8.52
		c0-0.66,0.05-1.28,0.14-1.85c0.09-0.57,0.19-1.28,0.32-2.12l0.81-4.88c0.72-4.33,2.38-7.82,4.98-10.47
		c2.61-2.64,6.1-3.97,10.46-3.97c3.47,0,6.24,0.89,8.31,2.66c2.07,1.78,2.83,4.29,2.29,7.54l-1.44,8.84
		c-0.42,2.53-1.17,4.68-2.24,6.46c-1.08,1.77-2.04,3.14-2.88,4.1c-1.68,1.87-3.44,3.19-5.29,3.97c-1.86,0.78-3.74,1.17-5.66,1.17
		C927.68,583.98,925.24,583.01,923.59,581.05 M942.49,605.17c3.95-2.93,6.53-7.81,7.73-14.64l7.73-46.33h-7.01l-1.35,8h-0.27
		c-1.01-3.03-2.67-5.3-4.98-6.82c-2.31-1.52-5.16-2.27-8.58-2.27c-4.01,0-7.39,0.97-10.14,2.91c-2.75,1.95-5,4.37-6.74,7.28
		s-2.99,6.07-3.77,9.51c-0.77,3.45-1.17,6.66-1.17,9.66c0,5.69,1.23,10.04,3.69,13.06c2.45,3.02,6.07,4.53,10.86,4.53
		c4.07,0,7.41-1.07,10.02-3.22c2.6-2.14,4.77-5.06,6.5-8.75h0.36l-1.88,11.15c-0.84,5.16-2.51,8.81-5.03,10.97s-5.9,3.24-10.15,3.24
		c-2.87,0-5.27-0.42-7.18-1.26c-1.92-0.84-3.47-2.04-4.67-3.59l-4.84,4.67c3.41,4.19,8.83,6.29,16.25,6.29
		C933.66,609.58,938.54,608.11,942.49,605.17 M882.37,591.16c0.99-0.3,2.08-0.83,3.28-1.61c1.2-0.77,2.56-1.79,4.09-3.04
		c1.52-1.26,3.34-2.87,5.43-4.84l8.17-7.53l-4.22-3.93l-17.69,15.3l-2.07-0.81l7.81-40.49h-23.89l-0.98,6.11H879l-6.11,31.54
		c-0.12,0.53-0.22,1.12-0.31,1.75c-0.09,0.62-0.14,1.24-0.14,1.84c0,1.79,0.58,3.27,1.75,4.44c1.17,1.16,2.89,1.74,5.16,1.74
		C880.38,591.61,881.39,591.47,882.37,591.16 M889.6,532.67c0.96-0.75,1.56-1.81,1.8-3.19c0.12-0.53,0.21-1.01,0.27-1.44
		c0.06-0.41,0.09-0.81,0.09-1.17c0-0.96-0.39-1.8-1.17-2.51c-0.78-0.72-2.12-1.08-4.04-1.08c-1.8,0-3.18,0.38-4.13,1.13
		c-0.96,0.74-1.56,1.81-1.8,3.18c-0.12,0.53-0.21,1.02-0.27,1.44c-0.06,0.42-0.09,0.81-0.09,1.17c0,0.96,0.39,1.8,1.17,2.51
		c0.78,0.72,2.12,1.08,4.05,1.08C887.27,533.78,888.64,533.42,889.6,532.67 M833.62,590.53c2.54-0.72,4.72-1.75,6.55-3.1
		c1.83-1.35,3.23-2.98,4.22-4.89c0.99-1.92,1.48-4.07,1.48-6.46c0-2.27-0.44-4.12-1.31-5.52c-0.86-1.4-1.96-2.51-3.27-3.32
		c-1.32-0.81-2.77-1.41-4.36-1.8c-1.59-0.39-3.13-0.7-4.62-0.95l-6.56-1.08c-0.96-0.18-1.87-0.37-2.74-0.58
		c-0.87-0.21-1.63-0.53-2.29-0.98c-0.66-0.45-1.18-1.04-1.57-1.76c-0.39-0.72-0.58-1.64-0.58-2.79c0-2.51,1.03-4.52,3.1-6.02
		c2.07-1.49,5.11-2.24,9.11-2.24c1.98,0,3.7,0.17,5.16,0.49c1.47,0.33,2.73,0.77,3.77,1.3c1.05,0.54,1.92,1.14,2.6,1.8
		c0.69,0.66,1.24,1.29,1.66,1.89l4.94-4.32c-1.73-2.21-4.04-3.95-6.91-5.2c-2.87-1.26-6.34-1.88-10.41-1.88
		c-2.76,0-5.33,0.31-7.73,0.94c-2.39,0.62-4.49,1.56-6.29,2.78c-1.8,1.23-3.22,2.76-4.26,4.58c-1.05,1.83-1.57,3.97-1.57,6.42
		c0,2.15,0.41,3.93,1.21,5.34c0.81,1.41,1.85,2.56,3.14,3.46c1.28,0.9,2.75,1.57,4.4,2.03c1.64,0.45,3.3,0.79,4.98,1.03l6.74,0.99
		c1.92,0.3,3.52,0.85,4.8,1.66c1.29,0.81,1.93,2.29,1.93,4.45c0,2.82-1.17,5-3.5,6.55c-2.33,1.56-5.56,2.34-9.7,2.34
		c-3.53,0-6.5-0.58-8.89-1.76c-2.39-1.17-4.49-2.88-6.28-5.16l-5.21,4.13c2.04,2.82,4.72,4.97,8.04,6.46
		c3.32,1.5,7.23,2.24,11.72,2.24C828.24,591.61,831.07,591.25,833.62,590.53 M782.88,549.5c1.17,0.36,2.11,0.85,2.83,1.48
		c0.72,0.62,1.24,1.36,1.57,2.19c0.33,0.84,0.49,1.73,0.49,2.68c0,1.13-0.3,2.26-0.9,3.39c-0.6,1.13-1.81,2.17-3.63,3.13
		c-1.83,0.95-4.46,1.77-7.91,2.46c-3.44,0.68-7.97,1.12-13.6,1.29l0.09-0.89c0.66-5.24,2.46-9.26,5.39-12.06
		c2.94-2.8,6.74-4.2,11.4-4.2C780.29,548.96,781.71,549.14,782.88,549.5 M784.41,588.23c3.32-2.26,6.3-5.55,8.93-9.89l-4.93-3.06
		c-1.32,1.85-2.56,3.42-3.73,4.71c-1.17,1.29-2.37,2.34-3.59,3.14c-1.23,0.81-2.51,1.41-3.86,1.8c-1.35,0.39-2.87,0.58-4.53,0.58
		c-2.46,0-4.44-0.34-5.93-1.03c-1.5-0.69-2.67-1.62-3.5-2.79c-0.84-1.17-1.4-2.5-1.71-4c-0.3-1.49-0.45-3.05-0.45-4.67v-0.76
		c0-0.39,0.03-0.82,0.09-1.3c7.37-0.18,13.28-0.77,17.74-1.8c4.45-1.01,7.87-2.27,10.23-3.76c2.36-1.49,3.92-3.1,4.67-4.83
		c0.75-1.73,1.13-3.41,1.13-5.02c0-2.03-0.39-3.81-1.17-5.36c-0.78-1.56-1.88-2.85-3.28-3.89c-1.4-1.05-3.06-1.84-4.98-2.38
		c-1.92-0.53-4.01-0.8-6.29-0.8c-3.71,0-7.14,0.7-10.28,2.11c-3.14,1.4-5.84,3.38-8.08,5.93c-2.24,2.54-4,5.56-5.25,9.07
		c-1.26,3.5-1.89,7.35-1.89,11.54c0,6.7,1.59,11.68,4.76,14.95c3.17,3.26,7.69,4.89,13.56,4.89
		C776.97,591.61,781.09,590.49,784.41,588.23 M707.91,582.58c-1.65-1.96-2.47-4.68-2.47-8.16c0-0.61,0.03-1.22,0.09-1.85
		c0.06-0.63,0.15-1.37,0.27-2.21l1.08-6.5c0.72-4.33,2.35-7.85,4.89-10.56c2.55-2.71,6.07-4.06,10.55-4.06
		c3.47,0,6.24,0.89,8.31,2.66c2.07,1.78,2.83,4.29,2.29,7.53l-1.71,10.29c-0.36,2.17-1,4.16-1.93,5.96
		c-0.93,1.8-1.99,3.37-3.18,4.69c-1.62,1.8-3.35,3.11-5.21,3.93c-1.85,0.81-3.73,1.21-5.65,1.21
		C711.98,585.51,709.55,584.53,707.91,582.58 M727.71,590.53h7l11.13-66.45h-7l-4.76,28.12h-0.26c-1.02-3.03-2.68-5.3-4.99-6.82
		c-2.31-1.52-5.16-2.27-8.57-2.27c-4.08,0-7.52,1-10.33,3c-2.82,2.01-5.08,4.54-6.78,7.59c-1.71,3.06-2.93,6.36-3.68,9.93
		c-0.75,3.56-1.13,6.9-1.13,10.01c0,5.99,1.25,10.48,3.73,13.47c2.48,2.99,6.07,4.49,10.73,4.49c4.07,0,7.37-1.08,9.92-3.25
		c2.55-2.17,4.72-5.07,6.51-8.69h0.27L727.71,590.53z M616.4,590.67c2-0.62,3.86-1.54,5.57-2.74c1.71-1.2,3.3-2.71,4.8-4.53
		c1.49-1.83,2.96-3.91,4.4-6.24l-5.03-2.96c-1.86,2.51-3.5,4.52-4.94,6.01c-1.44,1.5-2.77,2.64-3.99,3.42
		c-1.23,0.78-2.37,1.28-3.42,1.52c-1.05,0.24-2.08,0.36-3.1,0.36c-3.42,0-6.15-0.94-8.22-2.83s-3.1-4.8-3.1-8.75
		c0-0.6,0.03-1.2,0.09-1.8c0.06-0.6,0.18-1.44,0.36-2.51l0.9-5.39c0.84-4.85,2.5-8.56,4.98-11.14c2.48-2.57,5.71-3.85,9.66-3.85
		c2.87,0,5.2,0.5,6.96,1.52c1.76,1.02,3.1,2.96,4,5.83l6.01-2.33c-0.42-1.5-1.03-2.94-1.84-4.31c-0.81-1.38-1.88-2.56-3.19-3.55
		c-1.32-0.99-2.89-1.78-4.71-2.38c-1.83-0.6-3.97-0.89-6.42-0.89c-3.3,0-6.39,0.67-9.29,2.02c-2.9,1.34-5.43,3.27-7.59,5.79
		c-2.15,2.51-3.86,5.55-5.12,9.11c-1.25,3.57-1.88,7.57-1.88,11.99c0,2.87,0.38,5.52,1.13,7.94c0.75,2.43,1.85,4.49,3.32,6.2
		s3.3,3.04,5.47,3.99c2.19,0.96,4.72,1.44,7.59,1.44C612.19,591.61,614.4,591.3,616.4,590.67 M559.11,591.16
		c0.99-0.3,2.08-0.83,3.27-1.61c1.2-0.77,2.56-1.79,4.09-3.04c1.53-1.26,3.34-2.87,5.43-4.84l8.17-7.53l-4.22-3.93l-17.69,15.3
		l-2.07-0.81l7.81-40.49h-23.89l-0.99,6.11h16.7l-6.11,31.54c-0.12,0.53-0.22,1.12-0.32,1.75c-0.09,0.62-0.14,1.24-0.14,1.84
		c0,1.79,0.59,3.27,1.76,4.44c1.17,1.16,2.89,1.74,5.16,1.74C557.12,591.61,558.12,591.47,559.11,591.16 M566.34,532.67
		c0.95-0.75,1.55-1.81,1.8-3.19c0.11-0.53,0.21-1.01,0.26-1.44c0.06-0.41,0.1-0.81,0.1-1.17c0-0.96-0.39-1.8-1.17-2.51
		c-0.77-0.72-2.12-1.08-4.04-1.08c-1.8,0-3.18,0.38-4.13,1.13c-0.96,0.74-1.56,1.81-1.8,3.18c-0.12,0.53-0.21,1.02-0.26,1.44
		c-0.06,0.42-0.1,0.81-0.1,1.17c0,0.96,0.39,1.8,1.17,2.51c0.77,0.72,2.12,1.08,4.04,1.08
		C564.01,533.78,565.38,533.42,566.34,532.67 M483.1,590.53h7.01l4.31-25.59c0.24-1.32,0.6-2.56,1.08-3.73
		c0.48-1.17,0.99-2.22,1.52-3.14c0.54-0.93,1.06-1.71,1.57-2.34c0.51-0.62,0.89-1.09,1.13-1.39c1.32-1.56,2.77-2.79,4.36-3.68
		c1.58-0.9,3.39-1.35,5.43-1.35c2.63,0,4.58,0.79,5.84,2.38c1.25,1.59,1.88,3.76,1.88,6.51c0,0.48-0.03,1.15-0.09,2.02
		c-0.06,0.87-0.18,1.84-0.36,2.92l-4.58,27.38h7l4.68-28.01c0.18-1.02,0.31-2.05,0.4-3.1s0.14-2.02,0.14-2.92
		c0-4.25-1.13-7.54-3.37-9.88c-2.24-2.33-5.32-3.5-9.2-3.5c-3.77,0-6.86,1.08-9.25,3.23c-2.39,2.15-4.46,5.08-6.19,8.79h-0.36
		l5.2-31.07h-7.01L483.1,590.53z M440.49,582.85c-2.06-1.78-2.83-4.29-2.28-7.53l1.7-10.29c0.36-2.17,1.01-4.16,1.93-5.96
		c0.93-1.8,2-3.37,3.19-4.69c1.61-1.8,3.35-3.11,5.2-3.93c1.86-0.81,3.74-1.21,5.66-1.21c3.23,0,5.67,0.97,7.32,2.93
		c1.64,1.96,2.47,4.68,2.47,8.16c0,0.61-0.03,1.22-0.1,1.85c-0.06,0.63-0.15,1.37-0.26,2.21l-1.08,6.5
		c-0.72,4.33-2.35,7.85-4.9,10.57c-2.55,2.71-6.06,4.05-10.55,4.05C445.32,585.51,442.56,584.62,440.49,582.85 M425.63,608.5h7.01
		l4.4-25.97h0.27c1.01,3.03,2.68,5.3,4.98,6.82c2.31,1.52,5.16,2.27,8.58,2.27c4.07,0,7.51-1,10.33-3c2.81-2.01,5.08-4.54,6.78-7.59
		c1.71-3.06,2.94-6.36,3.69-9.93c0.74-3.56,1.12-6.9,1.12-10.01c0-5.99-1.24-10.48-3.73-13.47c-2.48-2.99-6.06-4.49-10.73-4.49
		c-4.07,0-7.38,1.09-9.92,3.26c-2.55,2.18-4.72,5.08-6.51,8.71h-0.27l1.8-10.89h-7.01L425.63,608.5z M384.64,582.58
		c-1.64-1.96-2.47-4.68-2.47-8.16c0-0.61,0.02-1.22,0.09-1.85c0.06-0.63,0.14-1.37,0.27-2.21l1.08-6.5
		c0.72-4.33,2.35-7.85,4.89-10.56c2.55-2.71,6.06-4.06,10.55-4.06c3.47,0,6.24,0.89,8.31,2.66c2.06,1.78,2.83,4.29,2.29,7.53
		l-1.71,10.29c-0.36,2.17-1.01,4.16-1.93,5.96c-0.93,1.8-2,3.37-3.19,4.69c-1.61,1.8-3.35,3.11-5.2,3.93
		c-1.86,0.81-3.74,1.21-5.66,1.21C388.73,585.51,386.28,584.53,384.64,582.58 M411.45,590.53l7.72-46.33h-7l-1.35,8h-0.27
		c-1.02-3.03-2.68-5.3-4.98-6.82c-2.31-1.52-5.16-2.27-8.58-2.27c-4.07,0-7.51,1-10.33,3c-2.82,2.01-5.08,4.54-6.78,7.59
		c-1.71,3.06-2.94,6.36-3.69,9.93c-0.75,3.56-1.12,6.9-1.12,10.01c0,5.99,1.24,10.48,3.73,13.47c2.48,2.99,6.06,4.49,10.73,4.49
		c4.07,0,7.38-1.09,9.92-3.26c2.55-2.18,4.72-5.08,6.51-8.71h0.27l-1.8,10.89H411.45z M339.16,590.53l4.04-24.15
		c0.24-1.32,0.59-2.55,1.04-3.69c0.45-1.13,0.94-2.15,1.48-3.05c0.54-0.9,1.07-1.66,1.57-2.29c0.51-0.63,0.92-1.13,1.21-1.48
		c1.38-1.61,2.97-2.79,4.76-3.54c1.8-0.75,4.04-1.13,6.73-1.13h7.91l1.17-7h-7.01c-2.21,0-4.19,0.3-5.92,0.89
		c-1.74,0.6-3.28,1.44-4.63,2.51s-2.53,2.38-3.54,3.91c-1.02,1.52-1.92,3.22-2.7,5.07h-0.45l2.07-12.39h-20.02l-0.99,6.11h13.02
		l-6.74,40.22H339.16z M277.07,581.05c-1.65-1.96-2.47-4.8-2.47-8.52c0-0.66,0.05-1.28,0.14-1.85c0.09-0.57,0.19-1.28,0.31-2.12
		l0.81-4.88c0.72-4.33,2.38-7.82,4.98-10.47c2.6-2.64,6.09-3.97,10.46-3.97c3.47,0,6.24,0.89,8.31,2.66
		c2.07,1.78,2.83,4.29,2.29,7.54l-1.44,8.84c-0.42,2.53-1.17,4.68-2.25,6.46c-1.08,1.77-2.04,3.14-2.87,4.1
		c-1.68,1.87-3.44,3.19-5.3,3.97c-1.85,0.78-3.73,1.17-5.65,1.17C281.15,583.98,278.71,583.01,277.07,581.05 M295.97,605.17
		c3.95-2.93,6.53-7.81,7.73-14.64l7.72-46.33h-7l-1.35,8h-0.27c-1.01-3.03-2.68-5.3-4.98-6.82c-2.31-1.52-5.16-2.27-8.58-2.27
		c-4.01,0-7.39,0.97-10.14,2.91c-2.75,1.95-5,4.37-6.74,7.28c-1.74,2.9-2.99,6.07-3.77,9.51c-0.77,3.45-1.17,6.66-1.17,9.66
		c0,5.69,1.23,10.04,3.68,13.06c2.46,3.02,6.08,4.53,10.87,4.53c4.07,0,7.41-1.07,10.01-3.22c2.61-2.14,4.77-5.06,6.51-8.75h0.36
		l-1.88,11.15c-0.84,5.16-2.51,8.81-5.03,10.97s-5.9,3.24-10.15,3.24c-2.87,0-5.27-0.42-7.18-1.26c-1.92-0.84-3.47-2.04-4.67-3.59
		l-4.85,4.67c3.42,4.19,8.83,6.29,16.26,6.29C287.14,609.58,292.01,608.11,295.97,605.17 M217.12,602.93l44.63-80.64h-6.55
		l-44.54,80.64H217.12z M190.23,549.5c1.17,0.36,2.11,0.85,2.83,1.48c0.72,0.62,1.24,1.36,1.57,2.19c0.33,0.84,0.49,1.73,0.49,2.68
		c0,1.13-0.3,2.26-0.9,3.39s-1.81,2.17-3.64,3.13c-1.83,0.95-4.45,1.77-7.9,2.46c-3.44,0.68-7.97,1.12-13.6,1.29l0.09-0.89
		c0.65-5.24,2.45-9.26,5.39-12.06c2.93-2.8,6.74-4.2,11.4-4.2C187.64,548.96,189.06,549.14,190.23,549.5 M191.76,588.23
		c3.32-2.26,6.3-5.55,8.93-9.89l-4.94-3.06c-1.32,1.85-2.55,3.42-3.73,4.71c-1.17,1.29-2.36,2.34-3.59,3.14
		c-1.22,0.81-2.51,1.41-3.85,1.8c-1.35,0.39-2.87,0.58-4.54,0.58c-2.45,0-4.43-0.34-5.92-1.03c-1.5-0.69-2.67-1.62-3.5-2.79
		c-0.84-1.17-1.4-2.5-1.71-4c-0.3-1.49-0.45-3.05-0.45-4.67v-0.76c0-0.39,0.03-0.82,0.09-1.3c7.37-0.18,13.27-0.77,17.73-1.8
		c4.46-1.01,7.88-2.27,10.24-3.76c2.36-1.49,3.92-3.1,4.67-4.83s1.13-3.41,1.13-5.02c0-2.03-0.39-3.81-1.17-5.36
		c-0.77-1.56-1.87-2.85-3.27-3.89c-1.41-1.05-3.07-1.84-4.99-2.38c-1.92-0.53-4.01-0.8-6.28-0.8c-3.71,0-7.14,0.7-10.29,2.11
		c-3.14,1.4-5.83,3.38-8.08,5.93c-2.25,2.54-4,5.56-5.26,9.07c-1.25,3.5-1.88,7.35-1.88,11.54c0,6.7,1.59,11.68,4.76,14.95
		c3.17,3.26,7.69,4.89,13.56,4.89C184.32,591.61,188.43,590.49,191.76,588.23 M117.23,582.85c-2.07-1.78-2.83-4.29-2.29-7.53
		l1.71-10.29c0.36-2.17,1-4.16,1.93-5.96c0.93-1.8,1.99-3.37,3.18-4.69c1.62-1.8,3.35-3.11,5.21-3.93c1.85-0.81,3.73-1.21,5.66-1.21
		c3.23,0,5.67,0.97,7.32,2.93c1.64,1.96,2.47,4.68,2.47,8.16c0,0.61-0.03,1.22-0.09,1.85c-0.06,0.63-0.15,1.37-0.27,2.21l-1.08,6.5
		c-0.72,4.33-2.35,7.85-4.89,10.57c-2.55,2.71-6.07,4.05-10.55,4.05C122.07,585.51,119.3,584.62,117.23,582.85 M102.37,608.5h7
		l4.41-25.97h0.26c1.02,3.03,2.68,5.3,4.99,6.82c2.31,1.52,5.16,2.27,8.57,2.27c4.07,0,7.52-1,10.33-3
		c2.82-2.01,5.08-4.54,6.78-7.59c1.71-3.06,2.93-6.36,3.68-9.93c0.75-3.56,1.13-6.9,1.13-10.01c0-5.99-1.24-10.48-3.73-13.47
		c-2.48-2.99-6.07-4.49-10.73-4.49c-4.07,0-7.37,1.09-9.92,3.26c-2.55,2.18-4.72,5.08-6.51,8.71h-0.27l1.8-10.89h-7.01L102.37,608.5
		z M80.1,605.17c3.95-2.93,6.53-7.81,7.73-14.64l7.73-46.33h-7.01L84.5,568.5c-0.24,1.32-0.6,2.57-1.08,3.73
		c-0.48,1.17-0.99,2.23-1.53,3.15c-0.53,0.93-1.06,1.71-1.57,2.34c-0.5,0.63-0.88,1.09-1.12,1.4c-1.32,1.56-2.77,2.79-4.36,3.69
		c-1.59,0.9-3.4,1.36-5.43,1.36c-2.63,0-4.59-0.8-5.88-2.39c-1.28-1.6-1.92-3.77-1.92-6.53c0-0.48,0.02-1.13,0.09-1.93
		c0.06-0.81,0.18-1.72,0.36-2.75l4.4-26.37h-7.01l-4.49,26.93c-0.18,1.2-0.32,2.24-0.41,3.14c-0.09,0.89-0.14,1.76-0.14,2.6
		c0,4.25,1.14,7.54,3.42,9.88c2.27,2.33,5.36,3.5,9.25,3.5c3.77,0,6.87-1.08,9.29-3.23c2.43-2.15,4.51-5.09,6.24-8.8h0.27l-1.8,11
		c-0.84,5.1-2.5,8.75-4.98,10.95c-2.49,2.19-5.88,3.29-10.19,3.29c-2.87,0-5.28-0.42-7.19-1.26c-1.92-0.84-3.47-2.04-4.67-3.59
		l-4.84,4.67c3.41,4.19,8.83,6.29,16.25,6.29C71.27,609.58,76.14,608.11,80.1,605.17 M17.15,591.21c0.96-0.27,2.05-0.7,3.28-1.3
		c1.22-0.6,2.6-1.39,4.13-2.37c1.53-0.99,3.34-2.23,5.43-3.72l10.14-7.17l-3.5-4.58l-20.21,13.44l-1.8-1.07l5.75-34.13h19.13
		l0.98-6.11H21.37l2.79-16.34h-6.65l-2.07,12.12c-0.3,1.56-0.82,2.65-1.57,3.27c-0.75,0.63-1.9,0.95-3.46,0.95H0.99L0,550.31h13.38
		l-5.39,31.18c-0.12,0.48-0.19,1.08-0.22,1.79c-0.03,0.72-0.04,1.28-0.04,1.71c0,2.15,0.58,3.79,1.75,4.92s2.8,1.7,4.89,1.7
		C15.27,591.61,16.19,591.48,17.15,591.21"/>
</g>
</svg>
